<svg width="1035" height="316" viewBox="0 0 1035 316" xmlns="http://www.w3.org/2000/svg">
  <!-- Background (optional, remove fill for transparent) -->
  <rect width="1035" height="316" fill="#f5f5f5"/>
  
  <!-- Chicken drumstick icon -->
  <g transform="translate(450, 100)">
    <!-- Drumstick shape -->
    <path d="M20 45 C20 35, 25 25, 35 20 C45 15, 55 15, 65 20 C75 25, 80 35, 80 45 L80 85 C80 95, 75 105, 65 110 L45 120 C35 125, 25 125, 20 115 L20 45 Z" 
          fill="none" 
          stroke="#ff4444" 
          stroke-width="3" 
          stroke-linecap="round" 
          stroke-linejoin="round"/>
    
    <!-- Bone end -->
    <ellipse cx="72" cy="32" rx="12" ry="8" 
             fill="none" 
             stroke="#ff4444" 
             stroke-width="3"/>
    
    <!-- Small bone knobs -->
    <circle cx="65" cy="27" r="4" 
            fill="none" 
            stroke="#ff4444" 
            stroke-width="3"/>
    <circle cx="79" cy="27" r="4" 
            fill="none" 
            stroke="#ff4444" 
            stroke-width="3"/>
    <circle cx="65" cy="37" r="4" 
            fill="none" 
            stroke="#ff4444" 
            stroke-width="3"/>
    <circle cx="79" cy="37" r="4" 
            fill="none" 
            stroke="#ff4444" 
            stroke-width="3"/>
    
    <!-- Texture dots on drumstick -->
    <circle cx="35" cy="60" r="2" fill="#ff4444"/>
    <circle cx="45" cy="55" r="2" fill="#ff4444"/>
    <circle cx="40" cy="70" r="2" fill="#ff4444"/>
    <circle cx="50" cy="65" r="2" fill="#ff4444"/>
    <circle cx="55" cy="75" r="2" fill="#ff4444"/>
    <circle cx="35" cy="80" r="2" fill="#ff4444"/>
    <circle cx="45" cy="85" r="2" fill="#ff4444"/>
    <circle cx="60" cy="60" r="2" fill="#ff4444"/>
  </g>
  
  <!-- Company name text -->
  <text x="517" y="220" 
        font-family="Arial, Helvetica, sans-serif" 
        font-size="48" 
        font-weight="600" 
        fill="#4a7cb8" 
        text-anchor="middle"
        dominant-baseline="middle">rwahumbiza chicken farms</text>
</svg>